<?xml version="1.0" standalone="no"?>
<svg xmlns="http://www.w3.org/2000/svg" xmlns:xlink="http://www.w3.org/1999/xlink" height="200px" width="200px">
  <defs>
    <pattern id="doodad" width="100" height="100" viewBox="0 0 40 40" patternUnits="userSpaceOnUse" patternTransform="rotate(45)">
      <rect width="100%" height="100%" fill="rgba(240, 231, 138,1)"/>
      <path d="M-0.5 20h1v4h-1zM6.17 20h1v4h-1zM12.83 20h1v4h-1zM19.5 20h1v4h-1zM26.17 20h1v4h-1zM32.83 20h1v4h-1zM39.5 20h1v4h-1zM46.17 20h1v4h-1zM52.83 20h1v4h-1zM59.5 20h1v4h-1zM66.17 20h1v4h-1zM72.83 20h1v4h-1z" fill="rgba(245, 187, 66,1)"/>
      <path d="M3.08 20h0.5v4h-0.5zM9.75 20h0.5v4h-0.5zM16.42 20h0.5v4h-0.5zM23.08 20h0.5v4h-0.5zM29.75 20h0.5v4h-0.5zM36.42 20h0.5v4h-0.5zM43.08 20h0.5v4h-0.5zM49.75 20h0.5v4h-0.5zM56.42 20h0.5v4h-0.5zM63.08 20h0.5v4h-0.5zM69.75 20h0.5v4h-0.5zM76.42 20h0.5v4h-0.5z" fill="rgba(169, 240, 110,1)"/>
    </pattern>
  </defs>
  <rect fill="url(#doodad)" height="200%" width="200%"/>
</svg>
